# xmcd CD database file
#
# Track frame offsets:
#	150
#	17313
#	37738
#	51748
#	81708
#	106005
#	117125
#	161050
#	184213
#	202743
#	216075
#	234175
#	249288
#	274870
#	289285
#
# Disc length: 4409 seconds
#
# Revision: 1
# Processed by: cddbd v1.4PL0 Copyright (c) Steve Scherf et al.
# Submitted via: CDex 1.50Beta7
#
DISCID=c911370f
DTITLE=Sammy Price - Barrelhouse And Blues
DYEAR=1969
DGENRE=Jazz
TTITLE0=Noney Grove Blues
TTITLE1=Rosetta
TTITLE2=St James Infirmary
TTITLE3=West End Boogie
TTITLE4=In The Evening (Take 2)
TTITLE5=Keepin Out Of Mischief
TTITLE6=Struttin With Georgia
TTITLE7=Royal Garden Blues
TTITLE8=Jelly On My Mind
TTITLE9=Boogie Woogie Minuet
TTITLE10=How Long Blues
TTITLE11=Hungarian Rhapsody
TTITLE12=In Evening (Take 1)
TTITLE13=Blues For The Bluesicians
TTITLE14=Just A Lonesome Babe In The Wood
EXTD=YEAR: 1969
EXTT0=
EXTT1=
EXTT2=
EXTT3=
EXTT4=
EXTT5=
EXTT6=
EXTT7=
EXTT8=
EXTT9=
EXTT10=
EXTT11=
EXTT12=
EXTT13=
EXTT14=
PLAYORDER=
